<mxfile host="Electron" agent="Mozilla/5.0 (Windows NT 10.0; Win64; x64) AppleWebKit/537.36 (KHTML, like Gecko) draw.io/26.0.16 Chrome/132.0.6834.196 Electron/34.2.0 Safari/537.36" version="26.0.16">
  <diagram name="SPI ASM" id="60CjyVo3vka8ncC1SVtx">
    <mxGraphModel dx="453" dy="678" grid="1" gridSize="10" guides="1" tooltips="1" connect="1" arrows="1" fold="1" page="1" pageScale="1" pageWidth="1169" pageHeight="827" math="0" shadow="0">
      <root>
        <mxCell id="0" />
        <mxCell id="1" parent="0" />
        <mxCell id="dfy9Y0E1n9yEKjS5N0aw-21" value="SPI Master ASM" style="swimlane;whiteSpace=wrap;html=1;" parent="1" vertex="1">
          <mxGeometry x="20" y="9" width="310" height="810" as="geometry" />
        </mxCell>
        <mxCell id="dfy9Y0E1n9yEKjS5N0aw-1" value="&lt;div&gt;temp_txData = z&lt;/div&gt;&lt;div&gt;done =0&lt;/div&gt;&lt;div&gt;ready = 1&lt;/div&gt;" style="rounded=0;whiteSpace=wrap;html=1;fillColor=#f5f5f5;fontColor=#333333;strokeColor=#666666;" parent="dfy9Y0E1n9yEKjS5N0aw-21" vertex="1">
          <mxGeometry x="150" y="120" width="120" height="60" as="geometry" />
        </mxCell>
        <mxCell id="dfy9Y0E1n9yEKjS5N0aw-19" style="edgeStyle=orthogonalEdgeStyle;rounded=0;orthogonalLoop=1;jettySize=auto;html=1;entryX=0;entryY=0.5;entryDx=0;entryDy=0;" parent="dfy9Y0E1n9yEKjS5N0aw-21" source="dfy9Y0E1n9yEKjS5N0aw-2" target="dfy9Y0E1n9yEKjS5N0aw-1" edge="1">
          <mxGeometry relative="1" as="geometry">
            <Array as="points">
              <mxPoint x="130" y="210" />
              <mxPoint x="130" y="150" />
            </Array>
          </mxGeometry>
        </mxCell>
        <mxCell id="dfy9Y0E1n9yEKjS5N0aw-2" value="start == 1" style="rhombus;whiteSpace=wrap;html=1;fillColor=#f8cecc;strokeColor=#b85450;" parent="dfy9Y0E1n9yEKjS5N0aw-21" vertex="1">
          <mxGeometry x="150" y="180" width="120" height="60" as="geometry" />
        </mxCell>
        <mxCell id="dfy9Y0E1n9yEKjS5N0aw-3" value="IDLE" style="ellipse;whiteSpace=wrap;html=1;aspect=fixed;fillColor=#fff2cc;strokeColor=#d6b656;" parent="dfy9Y0E1n9yEKjS5N0aw-21" vertex="1">
          <mxGeometry x="180" y="60" width="60" height="60" as="geometry" />
        </mxCell>
        <mxCell id="dfy9Y0E1n9yEKjS5N0aw-4" value="&lt;div&gt;rx_data = {rx_data[6:0],MISO}&lt;/div&gt;" style="rounded=0;whiteSpace=wrap;html=1;fillColor=#f5f5f5;fontColor=#333333;strokeColor=#666666;" parent="dfy9Y0E1n9yEKjS5N0aw-21" vertex="1">
          <mxGeometry x="150" y="420" width="120" height="60" as="geometry" />
        </mxCell>
        <mxCell id="5ZitU7mBlvdLznnbGjHi-5" style="edgeStyle=orthogonalEdgeStyle;rounded=0;orthogonalLoop=1;jettySize=auto;html=1;exitX=0;exitY=0.5;exitDx=0;exitDy=0;" edge="1" parent="dfy9Y0E1n9yEKjS5N0aw-21" source="dfy9Y0E1n9yEKjS5N0aw-5" target="5ZitU7mBlvdLznnbGjHi-4">
          <mxGeometry relative="1" as="geometry" />
        </mxCell>
        <mxCell id="dfy9Y0E1n9yEKjS5N0aw-5" value="tx_count == 49" style="rhombus;whiteSpace=wrap;html=1;fillColor=#f8cecc;strokeColor=#b85450;" parent="dfy9Y0E1n9yEKjS5N0aw-21" vertex="1">
          <mxGeometry x="150" y="360" width="120" height="60" as="geometry" />
        </mxCell>
        <mxCell id="dfy9Y0E1n9yEKjS5N0aw-6" value="CP0" style="ellipse;whiteSpace=wrap;html=1;aspect=fixed;fillColor=#fff2cc;strokeColor=#d6b656;" parent="dfy9Y0E1n9yEKjS5N0aw-21" vertex="1">
          <mxGeometry x="180" y="300" width="60" height="60" as="geometry" />
        </mxCell>
        <mxCell id="dfy9Y0E1n9yEKjS5N0aw-7" value="&lt;div&gt;temp_txData = tx_data&lt;/div&gt;" style="rounded=0;whiteSpace=wrap;html=1;fillColor=#f5f5f5;fontColor=#333333;strokeColor=#666666;" parent="dfy9Y0E1n9yEKjS5N0aw-21" vertex="1">
          <mxGeometry x="150" y="240" width="120" height="60" as="geometry" />
        </mxCell>
        <mxCell id="dfy9Y0E1n9yEKjS5N0aw-26" style="edgeStyle=orthogonalEdgeStyle;rounded=0;orthogonalLoop=1;jettySize=auto;html=1;exitX=0;exitY=0.5;exitDx=0;exitDy=0;entryX=0;entryY=0.5;entryDx=0;entryDy=0;" parent="dfy9Y0E1n9yEKjS5N0aw-21" source="dfy9Y0E1n9yEKjS5N0aw-11" target="dfy9Y0E1n9yEKjS5N0aw-12" edge="1">
          <mxGeometry relative="1" as="geometry">
            <mxPoint x="150" y="570" as="targetPoint" />
          </mxGeometry>
        </mxCell>
        <mxCell id="dfy9Y0E1n9yEKjS5N0aw-11" value="tx_count == 49" style="rhombus;whiteSpace=wrap;html=1;fillColor=#f8cecc;strokeColor=#b85450;" parent="dfy9Y0E1n9yEKjS5N0aw-21" vertex="1">
          <mxGeometry x="150" y="541" width="120" height="60" as="geometry" />
        </mxCell>
        <mxCell id="dfy9Y0E1n9yEKjS5N0aw-12" value="CP1" style="ellipse;whiteSpace=wrap;html=1;aspect=fixed;fillColor=#fff2cc;strokeColor=#d6b656;" parent="dfy9Y0E1n9yEKjS5N0aw-21" vertex="1">
          <mxGeometry x="180" y="480" width="60" height="60" as="geometry" />
        </mxCell>
        <mxCell id="dfy9Y0E1n9yEKjS5N0aw-15" value="" style="edgeStyle=orthogonalEdgeStyle;rounded=0;orthogonalLoop=1;jettySize=auto;html=1;" parent="dfy9Y0E1n9yEKjS5N0aw-21" source="dfy9Y0E1n9yEKjS5N0aw-13" target="dfy9Y0E1n9yEKjS5N0aw-14" edge="1">
          <mxGeometry relative="1" as="geometry" />
        </mxCell>
        <mxCell id="dfy9Y0E1n9yEKjS5N0aw-13" value="bit_count == 7" style="rhombus;whiteSpace=wrap;html=1;fillColor=#f8cecc;strokeColor=#b85450;" parent="dfy9Y0E1n9yEKjS5N0aw-21" vertex="1">
          <mxGeometry x="150" y="601" width="120" height="60" as="geometry" />
        </mxCell>
        <mxCell id="dfy9Y0E1n9yEKjS5N0aw-14" value="temp_txData = {temp_txData[6:0],0}" style="whiteSpace=wrap;html=1;fillColor=#f5f5f5;fontColor=#333333;strokeColor=#666666;" parent="dfy9Y0E1n9yEKjS5N0aw-21" vertex="1">
          <mxGeometry x="10" y="601" width="120" height="60" as="geometry" />
        </mxCell>
        <mxCell id="dfy9Y0E1n9yEKjS5N0aw-18" style="edgeStyle=orthogonalEdgeStyle;rounded=0;orthogonalLoop=1;jettySize=auto;html=1;entryX=0.5;entryY=0;entryDx=0;entryDy=0;" parent="dfy9Y0E1n9yEKjS5N0aw-21" source="dfy9Y0E1n9yEKjS5N0aw-17" target="dfy9Y0E1n9yEKjS5N0aw-3" edge="1">
          <mxGeometry relative="1" as="geometry">
            <Array as="points">
              <mxPoint x="210" y="721" />
              <mxPoint x="300" y="721" />
              <mxPoint x="300" y="40" />
              <mxPoint x="210" y="40" />
            </Array>
          </mxGeometry>
        </mxCell>
        <mxCell id="dfy9Y0E1n9yEKjS5N0aw-17" value="&lt;div&gt;done = 1&lt;/div&gt;" style="rounded=0;whiteSpace=wrap;html=1;fillColor=#f5f5f5;fontColor=#333333;strokeColor=#666666;" parent="dfy9Y0E1n9yEKjS5N0aw-21" vertex="1">
          <mxGeometry x="150" y="661" width="120" height="40" as="geometry" />
        </mxCell>
        <mxCell id="dfy9Y0E1n9yEKjS5N0aw-25" value="all count set 0 if it uses" style="text;html=1;align=left;verticalAlign=middle;whiteSpace=wrap;rounded=0;fontStyle=1" parent="dfy9Y0E1n9yEKjS5N0aw-21" vertex="1">
          <mxGeometry y="771" width="150" height="20" as="geometry" />
        </mxCell>
        <mxCell id="5ZitU7mBlvdLznnbGjHi-1" value="MOSI는 temp_txData의 최상위 비트" style="text;html=1;align=left;verticalAlign=middle;whiteSpace=wrap;rounded=0;fontStyle=1" vertex="1" parent="dfy9Y0E1n9yEKjS5N0aw-21">
          <mxGeometry y="791" width="200" height="20" as="geometry" />
        </mxCell>
        <mxCell id="5ZitU7mBlvdLznnbGjHi-7" value="" style="edgeStyle=orthogonalEdgeStyle;rounded=0;orthogonalLoop=1;jettySize=auto;html=1;entryDx=0;entryDy=0;entryX=0;entryY=0.5;" edge="1" parent="dfy9Y0E1n9yEKjS5N0aw-21" source="dfy9Y0E1n9yEKjS5N0aw-14" target="dfy9Y0E1n9yEKjS5N0aw-6">
          <mxGeometry relative="1" as="geometry">
            <mxPoint x="80" y="610" as="sourcePoint" />
            <mxPoint x="200" y="339" as="targetPoint" />
            <Array as="points">
              <mxPoint x="70" y="330" />
            </Array>
          </mxGeometry>
        </mxCell>
        <mxCell id="5ZitU7mBlvdLznnbGjHi-4" value="" style="shape=waypoint;sketch=0;fillStyle=solid;size=6;pointerEvents=1;points=[];fillColor=none;resizable=0;rotatable=0;perimeter=centerPerimeter;snapToPoint=1;strokeWidth=0;" vertex="1" parent="dfy9Y0E1n9yEKjS5N0aw-21">
          <mxGeometry x="110" y="320" width="20" height="20" as="geometry" />
        </mxCell>
        <mxCell id="VFlCf4QBHP-XWttGihmb-28" value="SPI SlaveIP Algorithm" style="swimlane;whiteSpace=wrap;html=1;" vertex="1" parent="1">
          <mxGeometry x="350" y="9" width="200" height="811" as="geometry" />
        </mxCell>
        <mxCell id="VFlCf4QBHP-XWttGihmb-1" value="IDLE" style="ellipse;whiteSpace=wrap;html=1;aspect=fixed;fillColor=#fff2cc;strokeColor=#d6b656;" vertex="1" parent="VFlCf4QBHP-XWttGihmb-28">
          <mxGeometry x="80" y="80.5" width="60" height="60" as="geometry" />
        </mxCell>
        <mxCell id="VFlCf4QBHP-XWttGihmb-45" style="edgeStyle=orthogonalEdgeStyle;rounded=0;orthogonalLoop=1;jettySize=auto;html=1;exitX=0;exitY=0.5;exitDx=0;exitDy=0;" edge="1" parent="VFlCf4QBHP-XWttGihmb-28" source="VFlCf4QBHP-XWttGihmb-25" target="VFlCf4QBHP-XWttGihmb-43">
          <mxGeometry relative="1" as="geometry" />
        </mxCell>
        <mxCell id="VFlCf4QBHP-XWttGihmb-25" value="!cs" style="rhombus;whiteSpace=wrap;html=1;fillColor=#f8cecc;strokeColor=#b85450;" vertex="1" parent="VFlCf4QBHP-XWttGihmb-28">
          <mxGeometry x="50" y="140.5" width="120" height="60" as="geometry" />
        </mxCell>
        <mxCell id="VFlCf4QBHP-XWttGihmb-29" value="L_BYTE" style="ellipse;whiteSpace=wrap;html=1;aspect=fixed;fillColor=#fff2cc;strokeColor=#d6b656;" vertex="1" parent="VFlCf4QBHP-XWttGihmb-28">
          <mxGeometry x="80" y="202" width="60" height="60" as="geometry" />
        </mxCell>
        <mxCell id="VFlCf4QBHP-XWttGihmb-44" style="edgeStyle=orthogonalEdgeStyle;rounded=0;orthogonalLoop=1;jettySize=auto;html=1;exitX=0;exitY=0.5;exitDx=0;exitDy=0;" edge="1" parent="VFlCf4QBHP-XWttGihmb-28" source="VFlCf4QBHP-XWttGihmb-30" target="VFlCf4QBHP-XWttGihmb-40">
          <mxGeometry relative="1" as="geometry" />
        </mxCell>
        <mxCell id="VFlCf4QBHP-XWttGihmb-30" value="!cs &amp;amp;&amp;amp; done" style="rhombus;whiteSpace=wrap;html=1;fillColor=#f8cecc;strokeColor=#b85450;" vertex="1" parent="VFlCf4QBHP-XWttGihmb-28">
          <mxGeometry x="50" y="262" width="120" height="60" as="geometry" />
        </mxCell>
        <mxCell id="VFlCf4QBHP-XWttGihmb-31" value="fnd_data[7:0] =data" style="rounded=0;whiteSpace=wrap;html=1;fillColor=#f5f5f5;fontColor=#333333;strokeColor=#666666;" vertex="1" parent="VFlCf4QBHP-XWttGihmb-28">
          <mxGeometry x="50" y="323" width="120" height="29.5" as="geometry" />
        </mxCell>
        <mxCell id="VFlCf4QBHP-XWttGihmb-32" value="H_BYTE" style="ellipse;whiteSpace=wrap;html=1;aspect=fixed;fillColor=#fff2cc;strokeColor=#d6b656;" vertex="1" parent="VFlCf4QBHP-XWttGihmb-28">
          <mxGeometry x="80" y="352" width="60" height="60" as="geometry" />
        </mxCell>
        <mxCell id="VFlCf4QBHP-XWttGihmb-37" style="edgeStyle=orthogonalEdgeStyle;rounded=0;orthogonalLoop=1;jettySize=auto;html=1;exitX=0;exitY=0.5;exitDx=0;exitDy=0;entryX=0.5;entryY=0;entryDx=0;entryDy=0;" edge="1" parent="VFlCf4QBHP-XWttGihmb-28" source="VFlCf4QBHP-XWttGihmb-33" target="VFlCf4QBHP-XWttGihmb-1">
          <mxGeometry relative="1" as="geometry">
            <Array as="points">
              <mxPoint x="20" y="442" />
              <mxPoint x="20" y="61" />
              <mxPoint x="110" y="61" />
            </Array>
          </mxGeometry>
        </mxCell>
        <mxCell id="VFlCf4QBHP-XWttGihmb-33" value="!cs &amp;amp;&amp;amp; done" style="rhombus;whiteSpace=wrap;html=1;fillColor=#f8cecc;strokeColor=#b85450;" vertex="1" parent="VFlCf4QBHP-XWttGihmb-28">
          <mxGeometry x="50" y="412" width="120" height="60" as="geometry" />
        </mxCell>
        <mxCell id="VFlCf4QBHP-XWttGihmb-35" style="edgeStyle=orthogonalEdgeStyle;rounded=0;orthogonalLoop=1;jettySize=auto;html=1;entryX=0.5;entryY=0;entryDx=0;entryDy=0;" edge="1" parent="VFlCf4QBHP-XWttGihmb-28" source="VFlCf4QBHP-XWttGihmb-34" target="VFlCf4QBHP-XWttGihmb-1">
          <mxGeometry relative="1" as="geometry">
            <Array as="points">
              <mxPoint x="110" y="522" />
              <mxPoint x="180" y="522" />
              <mxPoint x="180" y="61" />
              <mxPoint x="110" y="61" />
            </Array>
          </mxGeometry>
        </mxCell>
        <mxCell id="VFlCf4QBHP-XWttGihmb-34" value="fnd_data[15:8] =data" style="rounded=0;whiteSpace=wrap;html=1;fillColor=#f5f5f5;fontColor=#333333;strokeColor=#666666;" vertex="1" parent="VFlCf4QBHP-XWttGihmb-28">
          <mxGeometry x="50" y="473" width="120" height="29.5" as="geometry" />
        </mxCell>
        <mxCell id="VFlCf4QBHP-XWttGihmb-40" value="" style="shape=waypoint;sketch=0;fillStyle=solid;size=6;pointerEvents=1;points=[];fillColor=none;resizable=0;rotatable=0;perimeter=centerPerimeter;snapToPoint=1;strokeWidth=0;" vertex="1" parent="VFlCf4QBHP-XWttGihmb-28">
          <mxGeometry x="10" y="282" width="20" height="20" as="geometry" />
        </mxCell>
        <mxCell id="VFlCf4QBHP-XWttGihmb-43" value="" style="shape=waypoint;sketch=0;fillStyle=solid;size=6;pointerEvents=1;points=[];fillColor=none;resizable=0;rotatable=0;perimeter=centerPerimeter;snapToPoint=1;strokeWidth=0;" vertex="1" parent="VFlCf4QBHP-XWttGihmb-28">
          <mxGeometry x="10" y="160.5" width="20" height="20" as="geometry" />
        </mxCell>
      </root>
    </mxGraphModel>
  </diagram>
</mxfile>
